<svg width="105" height="42" viewBox="0 0 105 42" fill="none" xmlns="http://www.w3.org/2000/svg">
<g clip-path="url(#clip0_270_1063)">
<path d="M12.2496 12.288C11.2896 12.288 10.5003 12.0106 9.8816 11.456C9.28426 10.88 8.9856 10.176 8.9856 9.34398C8.9856 8.49065 9.28426 7.78665 9.8816 7.23198C10.5003 6.65598 11.2896 6.36798 12.2496 6.36798C13.1883 6.36798 13.9563 6.65598 14.5536 7.23198C15.1723 7.78665 15.4816 8.49065 15.4816 9.34398C15.4816 10.176 15.1723 10.88 14.5536 11.456C13.9563 12.0106 13.1883 12.288 12.2496 12.288ZM14.9696 14.144V32H9.4976V14.144H14.9696Z" fill="black"/>
<path d="M29.9751 13.952C32.0658 13.952 33.7298 14.6346 34.9671 16C36.2258 17.344 36.8551 19.2 36.8551 21.568V32H31.4151V22.304C31.4151 21.1093 31.1058 20.1813 30.4871 19.52C29.8684 18.8586 29.0364 18.528 27.9911 18.528C26.9458 18.528 26.1138 18.8586 25.4951 19.52C24.8764 20.1813 24.5671 21.1093 24.5671 22.304V32H19.0951V14.144H24.5671V16.512C25.1218 15.7226 25.8684 15.104 26.8071 14.656C27.7458 14.1866 28.8018 13.952 29.9751 13.952Z" fill="black"/>
<path d="M48.0816 32.256C46.5243 32.256 45.1376 31.9893 43.9216 31.456C42.7056 30.9226 41.7456 30.1973 41.0416 29.28C40.3376 28.3413 39.9429 27.296 39.8576 26.144H45.2656C45.3296 26.7626 45.6176 27.264 46.1296 27.648C46.6416 28.032 47.2709 28.224 48.0176 28.224C48.7003 28.224 49.2229 28.096 49.5856 27.84C49.9696 27.5626 50.1616 27.2106 50.1616 26.784C50.1616 26.272 49.8949 25.8986 49.3616 25.664C48.8283 25.408 47.9643 25.1306 46.7696 24.832C45.4896 24.5333 44.4229 24.224 43.5696 23.904C42.7163 23.5626 41.9803 23.04 41.3616 22.336C40.7429 21.6106 40.4336 20.64 40.4336 19.424C40.4336 18.4 40.7109 17.472 41.2656 16.64C41.8416 15.7866 42.6736 15.1146 43.7616 14.624C44.8709 14.1333 46.1829 13.888 47.6976 13.888C49.9376 13.888 51.6976 14.4426 52.9776 15.552C54.2789 16.6613 55.0256 18.1333 55.2176 19.968H50.1616C50.0763 19.3493 49.7989 18.8586 49.3296 18.496C48.8816 18.1333 48.2843 17.952 47.5376 17.952C46.8976 17.952 46.4069 18.08 46.0656 18.336C45.7243 18.5706 45.5536 18.9013 45.5536 19.328C45.5536 19.84 45.8203 20.224 46.3536 20.48C46.9083 20.736 47.7616 20.992 48.9136 21.248C50.2363 21.5893 51.3136 21.9306 52.1456 22.272C52.9776 22.592 53.7029 23.1253 54.3216 23.872C54.9616 24.5973 55.2923 25.5786 55.3136 26.816C55.3136 27.8613 55.0149 28.8 54.4176 29.632C53.8416 30.4426 52.9989 31.0826 51.8896 31.552C50.8016 32.0213 49.5323 32.256 48.0816 32.256Z" fill="black"/>
<path d="M68.7733 27.36V32H65.9893C64.0053 32 62.4587 31.52 61.3493 30.56C60.24 29.5786 59.6853 27.9893 59.6853 25.792V18.688H57.5093V14.144H59.6853V9.79198H65.1573V14.144H68.7413V18.688H65.1573V25.856C65.1573 26.3893 65.2853 26.7733 65.5413 27.008C65.7973 27.2426 66.224 27.36 66.8213 27.36H68.7733Z" fill="black"/>
<path d="M80.1093 32.256C78.36 32.256 76.7813 31.8826 75.3733 31.136C73.9867 30.3893 72.888 29.3227 72.0773 27.936C71.288 26.5493 70.8933 24.928 70.8933 23.072C70.8933 21.2373 71.2987 19.6266 72.1093 18.24C72.92 16.832 74.0294 15.7546 75.4373 15.008C76.8453 14.2613 78.424 13.888 80.1733 13.888C81.9227 13.888 83.5014 14.2613 84.9093 15.008C86.3173 15.7546 87.4267 16.832 88.2374 18.24C89.048 19.6266 89.4533 21.2373 89.4533 23.072C89.4533 24.9066 89.0373 26.528 88.2053 27.936C87.3947 29.3227 86.2747 30.3893 84.8453 31.136C83.4373 31.8826 81.8587 32.256 80.1093 32.256ZM80.1093 27.52C81.1547 27.52 82.04 27.136 82.7653 26.368C83.512 25.6 83.8853 24.5013 83.8853 23.072C83.8853 21.6426 83.5227 20.544 82.7973 19.776C82.0933 19.008 81.2187 18.624 80.1733 18.624C79.1067 18.624 78.2214 19.008 77.5173 19.776C76.8133 20.5226 76.4613 21.6213 76.4613 23.072C76.4613 24.5013 76.8027 25.6 77.4853 26.368C78.1893 27.136 79.064 27.52 80.1093 27.52Z" fill="black"/>
<path d="M97.9883 17.12C98.6283 16.1386 99.4284 15.3706 100.388 14.816C101.348 14.24 102.415 13.952 103.588 13.952V19.744H102.084C100.719 19.744 99.695 20.0426 99.0124 20.64C98.3297 21.216 97.9883 22.24 97.9883 23.712V32H92.5163V14.144H97.9883V17.12Z" fill="black"/>
<path fill-rule="evenodd" clip-rule="evenodd" d="M2.75 6.42432C4.26878 6.42432 5.5 7.65553 5.5 9.17432V30.7089C5.5 33.6084 7.85051 35.9589 10.75 35.9589H34.1262C35.645 35.9589 36.8762 37.1901 36.8762 38.7089C36.8762 40.2276 35.645 41.4589 34.1262 41.4589H10.75C4.81294 41.4589 0 36.6459 0 30.7089V9.17432C0 7.65553 1.23122 6.42432 2.75 6.42432Z" fill="#E3964A"/>
</g>
<defs>
<clipPath id="clip0_270_1063">
<rect width="104.514" height="42" fill="white"/>
</clipPath>
</defs>
</svg>
