<svg width="105" height="42" viewBox="0 0 105 42" fill="none" xmlns="http://www.w3.org/2000/svg">
<path d="M12.2497 12.2882C11.2897 12.2882 10.5004 12.0108 9.88172 11.4562C9.28438 10.8802 8.98572 10.1762 8.98572 9.34417C8.98572 8.49083 9.28438 7.78683 9.88172 7.23216C10.5004 6.65616 11.2897 6.36816 12.2497 6.36816C13.1884 6.36816 13.9564 6.65616 14.5537 7.23216C15.1724 7.78683 15.4817 8.49083 15.4817 9.34417C15.4817 10.1762 15.1724 10.8802 14.5537 11.4562C13.9564 12.0108 13.1884 12.2882 12.2497 12.2882ZM14.9697 14.1442V32.0002H9.49772V14.1442H14.9697Z" fill="white"/>
<path d="M29.9752 13.9522C32.0659 13.9522 33.7299 14.6348 34.9672 16.0002C36.2259 17.3442 36.8552 19.2002 36.8552 21.5682V32.0002H31.4152V22.3042C31.4152 21.1095 31.1059 20.1815 30.4872 19.5202C29.8686 18.8588 29.0366 18.5282 27.9912 18.5282C26.9459 18.5282 26.1139 18.8588 25.4952 19.5202C24.8766 20.1815 24.5672 21.1095 24.5672 22.3042V32.0002H19.0952V14.1442H24.5672V16.5122C25.1219 15.7228 25.8685 15.1042 26.8072 14.6562C27.7459 14.1868 28.8019 13.9522 29.9752 13.9522Z" fill="white"/>
<path d="M48.0817 32.2562C46.5244 32.2562 45.1377 31.9895 43.9217 31.4562C42.7057 30.9228 41.7457 30.1975 41.0417 29.2802C40.3377 28.3415 39.943 27.2962 39.8577 26.1442H45.2657C45.3297 26.7628 45.6177 27.2642 46.1297 27.6482C46.6417 28.0322 47.271 28.2242 48.0177 28.2242C48.7004 28.2242 49.223 28.0962 49.5857 27.8402C49.9697 27.5628 50.1617 27.2108 50.1617 26.7842C50.1617 26.2722 49.8951 25.8988 49.3617 25.6642C48.8284 25.4082 47.9644 25.1308 46.7697 24.8322C45.4897 24.5335 44.423 24.2242 43.5697 23.9042C42.7164 23.5628 41.9804 23.0402 41.3617 22.3362C40.743 21.6108 40.4337 20.6402 40.4337 19.4242C40.4337 18.4002 40.7111 17.4722 41.2657 16.6402C41.8417 15.7868 42.6737 15.1148 43.7617 14.6242C44.8711 14.1335 46.183 13.8882 47.6977 13.8882C49.9377 13.8882 51.6977 14.4428 52.9777 15.5522C54.2791 16.6615 55.0257 18.1335 55.2177 19.9682H50.1617C50.0764 19.3495 49.7991 18.8588 49.3297 18.4962C48.8817 18.1335 48.2844 17.9522 47.5377 17.9522C46.8977 17.9522 46.4071 18.0802 46.0657 18.3362C45.7244 18.5708 45.5537 18.9015 45.5537 19.3282C45.5537 19.8402 45.8204 20.2242 46.3537 20.4802C46.9084 20.7362 47.7617 20.9922 48.9137 21.2482C50.2364 21.5895 51.3137 21.9308 52.1457 22.2722C52.9777 22.5922 53.703 23.1255 54.3217 23.8722C54.9617 24.5975 55.2924 25.5788 55.3137 26.8162C55.3137 27.8615 55.0151 28.8002 54.4177 29.6322C53.8417 30.4428 52.9991 31.0828 51.8897 31.5522C50.8017 32.0215 49.5324 32.2562 48.0817 32.2562Z" fill="white"/>
<path d="M68.7735 27.3602V32.0002H65.9895C64.0055 32.0002 62.4588 31.5202 61.3495 30.5602C60.2401 29.5788 59.6855 27.9895 59.6855 25.7922V18.6882H57.5095V14.1442H59.6855V9.79217H65.1575V14.1442H68.7415V18.6882H65.1575V25.8562C65.1575 26.3895 65.2855 26.7735 65.5415 27.0082C65.7975 27.2428 66.2241 27.3602 66.8215 27.3602H68.7735Z" fill="white"/>
<path d="M80.1095 32.2562C78.3601 32.2562 76.7815 31.8828 75.3735 31.1362C73.9868 30.3895 72.8881 29.3228 72.0775 27.9362C71.2881 26.5495 70.8935 24.9282 70.8935 23.0722C70.8935 21.2375 71.2988 19.6268 72.1095 18.2402C72.9201 16.8322 74.0295 15.7548 75.4375 15.0082C76.8455 14.2615 78.4241 13.8882 80.1735 13.8882C81.9228 13.8882 83.5015 14.2615 84.9095 15.0082C86.3175 15.7548 87.4268 16.8322 88.2375 18.2402C89.0481 19.6268 89.4535 21.2375 89.4535 23.0722C89.4535 24.9068 89.0375 26.5282 88.2055 27.9362C87.3948 29.3228 86.2748 30.3895 84.8455 31.1362C83.4375 31.8828 81.8588 32.2562 80.1095 32.2562ZM80.1095 27.5202C81.1548 27.5202 82.0401 27.1362 82.7655 26.3682C83.5121 25.6002 83.8855 24.5015 83.8855 23.0722C83.8855 21.6428 83.5228 20.5442 82.7975 19.7762C82.0935 19.0082 81.2188 18.6242 80.1735 18.6242C79.1068 18.6242 78.2215 19.0082 77.5175 19.7762C76.8135 20.5228 76.4615 21.6215 76.4615 23.0722C76.4615 24.5015 76.8028 25.6002 77.4855 26.3682C78.1895 27.1362 79.0641 27.5202 80.1095 27.5202Z" fill="white"/>
<path d="M97.9885 17.1202C98.6285 16.1388 99.4285 15.3708 100.388 14.8162C101.348 14.2402 102.415 13.9522 103.588 13.9522V19.7442H102.084C100.719 19.7442 99.6951 20.0428 99.0125 20.6402C98.3298 21.2162 97.9885 22.2402 97.9885 23.7122V32.0002H92.5165V14.1442H97.9885V17.1202Z" fill="white"/>
<path fill-rule="evenodd" clip-rule="evenodd" d="M2.75 6.42432C4.26878 6.42432 5.5 7.65553 5.5 9.17432V30.7089C5.5 33.6084 7.85051 35.9589 10.75 35.9589H34.1262C35.645 35.9589 36.8762 37.1901 36.8762 38.7089C36.8762 40.2276 35.645 41.4589 34.1262 41.4589H10.75C4.81294 41.4589 0 36.6459 0 30.7089V9.17432C0 7.65553 1.23122 6.42432 2.75 6.42432Z" fill="#E3964A"/>
</svg>
